<?xml version="1.0" standalone="no"?>
<!DOCTYPE svg PUBLIC "-//W3C//DTD SVG 20010904//EN"
 "http://www.w3.org/TR/2001/REC-SVG-20010904/DTD/svg10.dtd">
<svg version="1.0" xmlns="http://www.w3.org/2000/svg"
 width="460.000000pt" height="460.000000pt" viewBox="0 0 460.000000 460.000000"
 preserveAspectRatio="xMidYMid meet">

<g transform="translate(0.000000,460.000000) scale(0.100000,-0.100000)"
fill="#000000" stroke="none">
<path d="M2235 4209 c-129 -31 -336 -105 -421 -149 -135 -71 -332 -231 -398
-324 -73 -102 -94 -154 -147 -361 -82 -321 -78 -433 26 -652 115 -242 250
-383 466 -485 38 -18 68 -36 67 -40 -2 -4 -59 -57 -128 -118 l-124 -110 -91 0
c-169 0 -290 -42 -365 -127 -41 -47 -67 -118 -81 -221 -28 -215 -17 -861 16
-971 20 -66 83 -136 156 -174 l53 -27 -87 0 c-79 0 -90 -2 -112 -24 -23 -23
-24 -27 -20 -161 2 -84 8 -142 16 -151 6 -8 28 -18 48 -24 122 -32 1440 -45
2181 -21 416 13 413 13 437 82 7 19 12 82 12 142 1 136 -4 143 -119 153 -77 6
-81 8 -54 19 51 22 122 94 150 152 26 53 28 66 37 277 6 140 6 333 0 521 -9
297 -10 301 -37 357 -34 72 -105 132 -194 166 -63 24 -81 26 -289 30 l-222 4
-28 36 c-15 21 -39 48 -53 62 -14 14 -47 48 -73 77 l-48 51 61 31 c177 90 359
290 471 516 67 136 106 339 96 500 -6 92 -40 222 -80 300 -37 75 -162 250
-226 317 -110 117 -180 162 -384 243 -190 75 -258 95 -330 95 -23 0 -51 7 -61
15 -24 18 -22 18 -121 -6z m51 -88 c-3 -4 1 -17 9 -27 15 -19 16 -18 34 4 15
17 30 22 64 22 67 0 214 -28 268 -51 65 -29 361 -259 437 -341 l22 -24 -70
-48 c-38 -27 -81 -61 -94 -76 l-24 -29 -22 24 c-15 16 -30 23 -44 19 -12 -2
-43 6 -71 19 -122 59 -190 70 -240 37 -55 -36 -60 -39 -98 -56 -36 -16 -67
-56 -67 -88 0 -21 -64 -28 -149 -16 -41 6 -75 11 -76 13 -1 1 -7 16 -13 32 -7
17 -26 39 -42 50 -16 11 -42 37 -57 57 -16 21 -47 47 -69 60 -38 20 -46 21
-90 9 -27 -6 -71 -17 -99 -22 -52 -11 -99 -32 -126 -55 -14 -13 -21 -5 -63 62
-55 91 -60 80 79 184 131 98 227 157 303 186 109 42 313 80 298 55z m675 -188
c13 -16 12 -17 -3 -4 -17 13 -22 21 -14 21 2 0 10 -8 17 -17z m-1403 -330 c49
-69 62 -94 62 -123 0 -75 81 -145 197 -171 91 -21 248 13 311 66 31 27 48 33
108 38 40 4 93 4 118 1 40 -6 49 -11 60 -38 15 -35 79 -102 116 -121 35 -18
122 -35 179 -35 99 0 190 56 208 128 3 15 19 40 35 55 18 19 28 39 29 60 0 18
3 26 6 20 2 -7 12 -13 21 -13 17 0 138 91 176 132 19 20 20 20 33 2 26 -34 63
-113 63 -133 0 -34 12 -51 35 -51 32 0 45 -55 52 -216 6 -145 -1 -194 -47
-312 -32 -84 -150 -297 -206 -373 -117 -159 -309 -272 -554 -325 -117 -26
-386 -26 -480 0 -201 54 -358 130 -477 230 -115 96 -153 140 -208 241 -58 106
-75 175 -82 326 -8 176 10 354 46 455 42 117 111 245 130 244 3 -1 34 -40 69
-87z m1592 43 c0 -2 -31 -27 -70 -55 -38 -29 -76 -62 -85 -73 -8 -12 -17 -19
-21 -16 -10 11 48 68 111 109 61 39 65 42 65 35z m-1370 -34 c0 -4 -20 -18
-45 -30 -52 -25 -61 -12 -12 18 33 21 57 26 57 12z m213 -36 c51 -23 65 -49
70 -133 2 -34 -1 -38 -28 -44 -39 -9 -164 -11 -201 -3 -33 6 -90 77 -78 96 4
7 3 8 -4 4 -7 -4 -12 -3 -12 1 0 5 29 23 65 41 35 17 70 41 77 51 14 23 34 21
111 -13z m763 -19 c18 -9 46 -28 63 -43 26 -22 31 -33 31 -70 0 -24 -5 -44
-11 -44 -6 0 -25 -11 -43 -25 -18 -14 -36 -22 -40 -17 -4 4 -6 0 -4 -8 2 -8
-3 -14 -10 -12 -8 1 -11 -2 -8 -7 8 -12 -32 -41 -56 -41 -9 0 -38 20 -63 44
-26 24 -65 52 -87 62 -35 15 -38 21 -33 43 4 14 11 29 17 32 5 3 9 9 8 13 -5
18 25 67 44 70 11 2 44 9 71 14 63 12 82 10 121 -11z m-744 -1412 c235 -56
395 -57 603 -6 l120 30 92 -97 91 -97 -315 -3 c-173 -1 -454 -1 -625 0 l-310
3 88 72 c49 39 100 83 113 97 14 14 28 26 32 26 4 0 54 -11 111 -25z m1477
-266 c85 -28 105 -43 141 -105 58 -99 62 -142 56 -595 -5 -418 -9 -455 -48
-534 -40 -79 -90 -114 -200 -139 -53 -12 -225 -14 -1082 -11 -1110 5 -1087 4
-1156 61 -38 33 -78 108 -90 173 -5 27 -10 237 -11 467 -1 365 1 426 16 474
18 61 75 151 108 173 25 16 140 54 177 59 14 2 475 2 1024 1 998 -2 999 -2
1065 -24z m165 -1508 c15 -13 17 -30 14 -117 -1 -56 -7 -106 -11 -111 -11 -10
-2482 -11 -2519 0 l-28 7 0 98 c0 53 3 106 6 117 5 20 13 20 1263 20 1081 0
1260 -2 1275 -14z"/>
<path d="M2063 2863 c-24 -5 -35 -24 -24 -41 7 -12 452 -19 471 -7 18 11 10
35 -16 45 -24 10 -385 12 -431 3z"/>
<path d="M2378 1499 c-10 -5 -18 -19 -18 -30 0 -18 -85 -167 -133 -234 -14
-19 -16 -19 -34 -2 -47 41 -78 3 -38 -45 15 -17 24 -37 21 -45 -3 -8 -2 -12 2
-9 7 4 64 -73 135 -185 11 -16 25 -29 33 -29 8 0 14 -6 14 -14 0 -7 6 -19 14
-25 21 -17 74 12 87 47 6 15 18 36 28 47 10 11 35 48 56 83 21 35 51 70 67 78
35 18 35 38 1 73 -16 15 -44 56 -63 90 -62 110 -131 211 -143 211 -7 0 -20 -5
-29 -11z m93 -233 c21 -23 37 -47 34 -54 -3 -7 -1 -11 4 -8 5 3 14 0 20 -8 9
-11 0 -29 -45 -85 -31 -39 -61 -68 -67 -64 -5 3 -8 2 -5 -3 3 -5 0 -15 -7 -21
-11 -10 -22 -1 -58 50 -76 107 -75 98 -20 183 26 42 52 84 58 94 8 17 11 16
28 -12 10 -18 36 -50 58 -72z"/>
</g>
</svg>
